<?xml version="1.0" standalone="no"?>
<svg viewBox="0 0 200 200" xmlns="http://www.w3.org/2000/svg">
  <path fill="#52057B" d="M23.6,-49.3C30.1,-37,34.6,-29.8,45.6,-22.4C56.6,-15.1,74,-7.5,81.5,4.3C89,16.2,86.5,32.4,78.1,44.1C69.6,55.8,55.1,63.1,41.1,70.2C27.1,77.3,13.6,84.2,2.9,79.3C-7.8,74.3,-15.7,57.5,-23.8,47C-31.9,36.5,-40.4,32.3,-45.8,25.6C-51.2,18.8,-53.6,9.4,-49.1,2.6C-44.6,-4.2,-33.2,-8.4,-30.2,-19.3C-27.2,-30.3,-32.5,-47.9,-28.9,-61.9C-25.3,-75.8,-12.6,-86,-2.1,-82.4C8.5,-78.9,17,-61.6,23.6,-49.3Z" transform="translate(100 100)" />
</svg>
