<?xml version="1.0" standalone="no"?>
<svg viewBox="0 0 200 200" xmlns="http://www.w3.org/2000/svg">
  <path fill="#52057B" d="M37.2,-59.8C42.9,-54.2,38.5,-34.9,39.8,-21.3C41.1,-7.7,48.1,0.1,48.4,7.8C48.6,15.6,42.1,23.2,36,32.5C30,41.8,24.3,52.7,16.8,53C9.2,53.4,-0.2,43.1,-12.5,40.5C-24.9,37.9,-40.1,42.9,-48.9,38.9C-57.6,35,-59.9,22,-57,11.1C-54,0.2,-45.8,-8.5,-40.8,-18.3C-35.8,-28.2,-34.1,-39.2,-27.8,-44.6C-21.5,-49.9,-10.8,-49.5,2.5,-53.4C15.8,-57.3,31.5,-65.4,37.2,-59.8Z" transform="translate(100 100)" />
</svg>
